<?xml version="1.0" encoding="UTF-8"?>
<svg xmlns="http://www.w3.org/2000/svg" xmlns:xlink="http://www.w3.org/1999/xlink" width="1560" height="530" viewBox="0 0 156 53">
<defs>
<clipPath id="clip-0">
<path clip-rule="nonzero" d="M 88 0.625 L 119 0.625 L 119 23 L 88 23 Z M 88 0.625 "/>
</clipPath>
<clipPath id="clip-1">
<path clip-rule="nonzero" d="M 149 28 L 155.90625 28 L 155.90625 38 L 149 38 Z M 149 28 "/>
</clipPath>
<clipPath id="clip-2">
<path clip-rule="nonzero" d="M 147 43 L 155.90625 43 L 155.90625 53 L 147 53 Z M 147 43 "/>
</clipPath>
</defs>
<g clip-path="url(#clip-0)">
<path fill-rule="evenodd" fill="rgb(0%, 54.606628%, 54.093933%)" fill-opacity="1" d="M 117.589844 12.515625 C 116.953125 12.390625 116.71875 11.910156 116.851562 11.292969 C 117.542969 9.800781 119.457031 11.144531 118.382812 12.300781 C 118.15625 12.488281 117.964844 12.585938 117.589844 12.515625 Z M 88.078125 18.027344 C 88.175781 15.484375 89.578125 13.125 90.804688 10.988281 C 91.648438 9.679688 92.628906 8.410156 93.632812 7.21875 C 92.964844 7.320312 92.460938 7.480469 91.71875 7.59375 C 91.390625 7.667969 91.347656 7.230469 91.554688 7.105469 C 92.457031 6.859375 93.394531 6.632812 94.304688 6.429688 C 95.898438 4.582031 96.890625 3.542969 98.222656 2.269531 C 98.757812 1.757812 99.730469 0.800781 100.640625 0.625 C 101.292969 0.644531 102.601562 0.898438 102.050781 1.746094 C 101.101562 2.882812 100.25 3.847656 98.960938 5.394531 C 100.144531 5.214844 101.328125 5.027344 102.523438 4.84375 C 103.054688 4.902344 103.179688 5.238281 102.714844 5.484375 C 102.390625 5.5625 102.390625 5.5625 98.285156 6.25 C 98.222656 6.304688 98.15625 6.375 98.097656 6.441406 C 97.273438 7.542969 96.46875 8.636719 95.695312 9.773438 C 94.011719 12.441406 92.539062 15.027344 91.941406 18.171875 C 91.898438 18.429688 91.855469 18.960938 92.039062 19.152344 C 92.269531 19.15625 92.628906 18.957031 92.867188 18.851562 C 96.027344 17.21875 98.617188 15.050781 101.671875 13.140625 C 103.074219 9.796875 104.667969 6.410156 106.480469 3.28125 C 106.878906 2.835938 107.261719 3.085938 107.101562 3.40625 C 106.105469 5.152344 103.558594 10.128906 102.734375 12.441406 C 104.625 11.132812 107.46875 9.417969 109.511719 8.539062 C 110.265625 8.214844 111.335938 8.421875 111.777344 9.3125 C 111.945312 9.65625 111.953125 10.46875 111.800781 10.867188 C 110.996094 12.984375 110.0625 14.632812 109.160156 16.667969 C 108.828125 17.546875 108.160156 18.71875 108.273438 19.417969 C 108.363281 19.976562 112.015625 17.34375 112.59375 16.867188 C 112.804688 16.691406 114.222656 15.535156 114.472656 15.363281 C 115.011719 14.996094 115.40625 14.726562 115.890625 14.75 C 116.855469 14.796875 117.800781 15.429688 117.257812 16.019531 C 114.742188 18.734375 112.03125 21.496094 108.699219 22.371094 C 107.230469 22.765625 105.132812 21.675781 105.019531 19.789062 C 104.917969 18.214844 105.417969 16.710938 106.050781 15.273438 C 106.332031 14.648438 107.066406 13.074219 107.40625 12.425781 C 105.179688 13.878906 103.117188 15.367188 100.984375 17.066406 C 100.273438 18.964844 99.9375 19.917969 99.417969 21.9375 C 99.242188 22.640625 98.371094 22.445312 98.523438 21.890625 C 98.789062 20.910156 99.539062 18.941406 99.886719 17.890625 C 98.03125 19.269531 96.132812 20.929688 94.03125 21.890625 C 92.914062 22.402344 91.6875 22.601562 90.765625 22.292969 C 88.714844 21.597656 88.078125 20.175781 88.078125 18.027344 "/>
</g>
<path fill-rule="nonzero" fill="rgb(13.729858%, 12.159729%, 12.548828%)" fill-opacity="1" d="M 0 28.621094 L 6.46875 28.621094 L 6.46875 29.703125 L 3.882812 29.703125 L 3.882812 37.839844 L 2.585938 37.839844 L 2.585938 29.703125 L 0 29.703125 L 0 28.621094 "/>
<path fill-rule="nonzero" fill="rgb(13.729858%, 12.159729%, 12.548828%)" fill-opacity="1" d="M 7.851562 28.621094 L 12.839844 28.621094 L 12.839844 29.613281 L 9.140625 29.613281 L 9.140625 32.539062 L 12.632812 32.539062 L 12.632812 33.578125 L 9.140625 33.578125 L 9.140625 36.777344 L 12.960938 36.777344 L 12.960938 37.839844 L 7.851562 37.839844 L 7.851562 28.621094 "/>
<path fill-rule="nonzero" fill="rgb(13.729858%, 12.159729%, 12.548828%)" fill-opacity="1" d="M 21.417969 28.949219 L 21.367188 30.066406 C 21.011719 29.917969 20.664062 29.808594 20.328125 29.734375 C 19.988281 29.660156 19.640625 29.625 19.289062 29.625 C 18.183594 29.625 17.304688 29.949219 16.652344 30.59375 C 16 31.238281 15.675781 32.113281 15.675781 33.210938 C 15.675781 34.324219 16 35.195312 16.648438 35.832031 C 17.296875 36.46875 18.183594 36.785156 19.304688 36.785156 C 19.660156 36.785156 20.003906 36.753906 20.34375 36.683594 C 20.679688 36.617188 21.011719 36.519531 21.339844 36.386719 L 21.378906 37.546875 C 21.058594 37.652344 20.71875 37.730469 20.355469 37.785156 C 19.992188 37.839844 19.605469 37.867188 19.199219 37.867188 C 17.6875 37.867188 16.496094 37.457031 15.625 36.636719 C 14.753906 35.820312 14.316406 34.703125 14.316406 33.285156 C 14.316406 31.855469 14.761719 30.714844 15.652344 29.867188 C 16.539062 29.019531 17.738281 28.59375 19.238281 28.59375 C 19.640625 28.59375 20.023438 28.625 20.390625 28.679688 C 20.757812 28.738281 21.097656 28.828125 21.417969 28.949219 "/>
<path fill-rule="nonzero" fill="rgb(13.729858%, 12.159729%, 12.548828%)" fill-opacity="1" d="M 22.902344 28.621094 L 24.191406 28.621094 L 24.191406 32.523438 L 28.378906 32.523438 L 28.378906 28.621094 L 29.667969 28.621094 L 29.667969 37.839844 L 28.378906 37.839844 L 28.378906 33.578125 L 24.191406 33.578125 L 24.191406 37.839844 L 22.902344 37.839844 L 22.902344 28.621094 "/>
<path fill-rule="nonzero" fill="rgb(13.729858%, 12.159729%, 12.548828%)" fill-opacity="1" d="M 31.980469 28.621094 L 33.609375 28.621094 L 37.621094 35.796875 C 37.675781 35.902344 37.746094 36.058594 37.824219 36.273438 C 37.90625 36.488281 37.988281 36.738281 38.074219 37.03125 C 38.019531 36.695312 37.972656 36.390625 37.945312 36.117188 C 37.914062 35.847656 37.898438 35.613281 37.898438 35.421875 L 37.898438 28.621094 L 39.082031 28.621094 L 39.082031 37.839844 L 37.503906 37.839844 L 33.421875 30.597656 C 33.367188 30.511719 33.304688 30.367188 33.230469 30.160156 C 33.15625 29.957031 33.078125 29.691406 32.984375 29.359375 C 33.050781 29.851562 33.097656 30.234375 33.125 30.503906 C 33.152344 30.769531 33.167969 30.964844 33.167969 31.082031 L 33.167969 37.839844 L 31.980469 37.839844 L 31.980469 28.621094 "/>
<path fill-rule="nonzero" fill="rgb(13.729858%, 12.159729%, 12.548828%)" fill-opacity="1" d="M 41.378906 37.839844 L 42.667969 37.839844 L 42.667969 28.621094 L 41.378906 28.621094 Z M 41.378906 37.839844 "/>
<path fill-rule="nonzero" fill="rgb(13.729858%, 12.159729%, 12.548828%)" fill-opacity="1" d="M 49.652344 28.863281 L 49.523438 29.996094 C 49.238281 29.855469 48.945312 29.753906 48.644531 29.683594 C 48.339844 29.613281 48.027344 29.582031 47.699219 29.582031 C 47.136719 29.582031 46.699219 29.683594 46.386719 29.890625 C 46.074219 30.097656 45.914062 30.382812 45.914062 30.746094 C 45.914062 31.035156 46.023438 31.292969 46.234375 31.527344 C 46.449219 31.757812 46.90625 32.070312 47.609375 32.453125 C 48.519531 32.957031 49.152344 33.410156 49.496094 33.824219 C 49.84375 34.234375 50.015625 34.703125 50.015625 35.230469 C 50.015625 36.015625 49.730469 36.65625 49.15625 37.15625 C 48.582031 37.660156 47.847656 37.910156 46.945312 37.910156 C 46.507812 37.910156 46.089844 37.875 45.691406 37.804688 C 45.292969 37.734375 44.921875 37.632812 44.574219 37.496094 L 44.707031 36.257812 C 45.085938 36.460938 45.453125 36.605469 45.808594 36.703125 C 46.164062 36.796875 46.511719 36.847656 46.847656 36.847656 C 47.390625 36.847656 47.828125 36.726562 48.15625 36.484375 C 48.484375 36.242188 48.648438 35.921875 48.648438 35.523438 C 48.648438 34.902344 48 34.226562 46.703125 33.488281 C 46.484375 33.371094 46.320312 33.273438 46.210938 33.207031 C 45.714844 32.917969 45.328125 32.570312 45.046875 32.160156 C 44.769531 31.75 44.628906 31.328125 44.628906 30.894531 C 44.628906 30.175781 44.902344 29.605469 45.449219 29.183594 C 45.996094 28.761719 46.742188 28.550781 47.6875 28.550781 C 48.035156 28.550781 48.375 28.578125 48.703125 28.628906 C 49.035156 28.679688 49.351562 28.757812 49.652344 28.863281 "/>
<path fill-rule="nonzero" fill="rgb(13.729858%, 12.159729%, 12.548828%)" fill-opacity="1" d="M 58.476562 28.949219 L 58.421875 30.066406 C 58.070312 29.917969 57.722656 29.808594 57.382812 29.734375 C 57.042969 29.660156 56.695312 29.625 56.347656 29.625 C 55.238281 29.625 54.359375 29.949219 53.707031 30.59375 C 53.058594 31.238281 52.730469 32.113281 52.730469 33.210938 C 52.730469 34.324219 53.054688 35.195312 53.707031 35.832031 C 54.355469 36.46875 55.238281 36.785156 56.359375 36.785156 C 56.714844 36.785156 57.058594 36.753906 57.398438 36.683594 C 57.734375 36.617188 58.070312 36.519531 58.398438 36.386719 L 58.4375 37.546875 C 58.117188 37.652344 57.773438 37.730469 57.410156 37.785156 C 57.046875 37.839844 56.660156 37.867188 56.253906 37.867188 C 54.746094 37.867188 53.554688 37.457031 52.679688 36.636719 C 51.808594 35.820312 51.375 34.703125 51.375 33.285156 C 51.375 31.855469 51.820312 30.714844 52.707031 29.867188 C 53.597656 29.019531 54.792969 28.59375 56.292969 28.59375 C 56.695312 28.59375 57.082031 28.625 57.445312 28.679688 C 57.8125 28.738281 58.15625 28.828125 58.476562 28.949219 "/>
<path fill-rule="nonzero" fill="rgb(13.729858%, 12.159729%, 12.548828%)" fill-opacity="1" d="M 59.960938 28.621094 L 61.25 28.621094 L 61.25 32.523438 L 65.433594 32.523438 L 65.433594 28.621094 L 66.722656 28.621094 L 66.722656 37.839844 L 65.433594 37.839844 L 65.433594 33.578125 L 61.25 33.578125 L 61.25 37.839844 L 59.960938 37.839844 L 59.960938 28.621094 "/>
<path fill-rule="nonzero" fill="rgb(13.729858%, 12.159729%, 12.548828%)" fill-opacity="1" d="M 69.039062 28.621094 L 74.027344 28.621094 L 74.027344 29.613281 L 70.328125 29.613281 L 70.328125 32.539062 L 73.820312 32.539062 L 73.820312 33.578125 L 70.328125 33.578125 L 70.328125 36.777344 L 74.148438 36.777344 L 74.148438 37.839844 L 69.039062 37.839844 L 69.039062 28.621094 "/>
<path fill-rule="nonzero" fill="rgb(13.729858%, 12.159729%, 12.548828%)" fill-opacity="1" d="M 80.019531 28.621094 L 81.308594 28.621094 L 81.308594 34.050781 C 81.308594 35.035156 81.484375 35.765625 81.84375 36.238281 C 82.203125 36.714844 82.75 36.949219 83.484375 36.949219 C 84.226562 36.949219 84.785156 36.695312 85.164062 36.1875 C 85.539062 35.679688 85.726562 34.929688 85.726562 33.933594 L 85.726562 28.621094 L 86.929688 28.621094 L 86.929688 33.960938 C 86.929688 35.308594 86.640625 36.324219 86.0625 37 C 85.476562 37.675781 84.605469 38.015625 83.445312 38.015625 C 82.320312 38.015625 81.46875 37.683594 80.890625 37.023438 C 80.308594 36.359375 80.019531 35.382812 80.019531 34.089844 L 80.019531 28.621094 "/>
<path fill-rule="nonzero" fill="rgb(13.729858%, 12.159729%, 12.548828%)" fill-opacity="1" d="M 89.242188 28.621094 L 90.867188 28.621094 L 94.878906 35.796875 C 94.933594 35.902344 95.003906 36.058594 95.085938 36.273438 C 95.164062 36.488281 95.246094 36.738281 95.332031 37.03125 C 95.277344 36.695312 95.234375 36.390625 95.203125 36.117188 C 95.171875 35.847656 95.15625 35.613281 95.15625 35.421875 L 95.15625 28.621094 L 96.34375 28.621094 L 96.34375 37.839844 L 94.761719 37.839844 L 90.679688 30.597656 C 90.628906 30.511719 90.566406 30.367188 90.492188 30.160156 C 90.417969 29.957031 90.335938 29.691406 90.246094 29.359375 C 90.308594 29.851562 90.355469 30.234375 90.386719 30.503906 C 90.414062 30.769531 90.425781 30.964844 90.425781 31.082031 L 90.425781 37.839844 L 89.242188 37.839844 L 89.242188 28.621094 "/>
<path fill-rule="nonzero" fill="rgb(13.729858%, 12.159729%, 12.548828%)" fill-opacity="1" d="M 98.644531 37.839844 L 99.933594 37.839844 L 99.933594 28.621094 L 98.644531 28.621094 Z M 98.644531 37.839844 "/>
<path fill-rule="nonzero" fill="rgb(13.729858%, 12.159729%, 12.548828%)" fill-opacity="1" d="M 101.324219 28.621094 L 102.695312 28.621094 L 105.402344 36.609375 L 108.203125 28.621094 L 109.507812 28.621094 L 106.109375 37.839844 L 104.605469 37.839844 L 101.324219 28.621094 "/>
<path fill-rule="nonzero" fill="rgb(13.729858%, 12.159729%, 12.548828%)" fill-opacity="1" d="M 110.84375 28.621094 L 115.832031 28.621094 L 115.832031 29.613281 L 112.132812 29.613281 L 112.132812 32.539062 L 115.628906 32.539062 L 115.628906 33.578125 L 112.132812 33.578125 L 112.132812 36.777344 L 115.957031 36.777344 L 115.957031 37.839844 L 110.84375 37.839844 L 110.84375 28.621094 "/>
<path fill-rule="nonzero" fill="rgb(13.729858%, 12.159729%, 12.548828%)" fill-opacity="1" d="M 119.050781 29.613281 L 119.050781 32.757812 L 120.042969 32.757812 C 120.6875 32.757812 121.191406 32.613281 121.554688 32.332031 C 121.921875 32.046875 122.105469 31.65625 122.105469 31.160156 C 122.105469 30.628906 121.9375 30.238281 121.59375 29.988281 C 121.253906 29.738281 120.726562 29.613281 120.003906 29.613281 Z M 117.769531 28.621094 L 120.257812 28.621094 C 121.308594 28.621094 122.097656 28.816406 122.628906 29.214844 C 123.152344 29.609375 123.421875 30.199219 123.421875 30.980469 C 123.421875 31.566406 123.246094 32.050781 122.902344 32.441406 C 122.554688 32.828125 122.058594 33.089844 121.410156 33.226562 C 121.6875 33.300781 121.914062 33.425781 122.085938 33.601562 C 122.257812 33.78125 122.4375 34.089844 122.621094 34.53125 L 124.019531 37.839844 L 122.636719 37.839844 L 121.425781 34.824219 C 121.265625 34.433594 121.0625 34.160156 120.820312 34 C 120.578125 33.839844 120.234375 33.757812 119.789062 33.757812 L 119.050781 33.757812 L 119.050781 37.839844 L 117.769531 37.839844 L 117.769531 28.621094 "/>
<path fill-rule="nonzero" fill="rgb(13.729858%, 12.159729%, 12.548828%)" fill-opacity="1" d="M 130.324219 28.863281 L 130.195312 29.996094 C 129.910156 29.855469 129.617188 29.753906 129.316406 29.683594 C 129.015625 29.613281 128.699219 29.582031 128.371094 29.582031 C 127.808594 29.582031 127.371094 29.683594 127.058594 29.890625 C 126.746094 30.097656 126.589844 30.382812 126.589844 30.746094 C 126.589844 31.035156 126.695312 31.292969 126.90625 31.527344 C 127.117188 31.757812 127.578125 32.070312 128.28125 32.453125 C 129.191406 32.957031 129.824219 33.410156 130.167969 33.824219 C 130.515625 34.234375 130.6875 34.703125 130.6875 35.230469 C 130.6875 36.015625 130.402344 36.65625 129.828125 37.15625 C 129.253906 37.660156 128.515625 37.910156 127.617188 37.910156 C 127.179688 37.910156 126.761719 37.875 126.363281 37.804688 C 125.964844 37.734375 125.59375 37.632812 125.246094 37.496094 L 125.378906 36.257812 C 125.757812 36.460938 126.128906 36.605469 126.480469 36.703125 C 126.835938 36.796875 127.183594 36.847656 127.523438 36.847656 C 128.0625 36.847656 128.5 36.726562 128.828125 36.484375 C 129.15625 36.242188 129.320312 35.921875 129.320312 35.523438 C 129.320312 34.902344 128.671875 34.226562 127.375 33.488281 C 127.160156 33.371094 126.996094 33.273438 126.882812 33.207031 C 126.390625 32.917969 126.003906 32.570312 125.722656 32.160156 C 125.441406 31.75 125.300781 31.328125 125.300781 30.894531 C 125.300781 30.175781 125.574219 29.605469 126.121094 29.183594 C 126.667969 28.761719 127.414062 28.550781 128.359375 28.550781 C 128.710938 28.550781 129.050781 28.578125 129.378906 28.628906 C 129.707031 28.679688 130.023438 28.757812 130.324219 28.863281 "/>
<path fill-rule="nonzero" fill="rgb(13.729858%, 12.159729%, 12.548828%)" fill-opacity="1" d="M 132.457031 37.839844 L 133.746094 37.839844 L 133.746094 28.621094 L 132.457031 28.621094 Z M 132.457031 37.839844 "/>
<path fill-rule="nonzero" fill="rgb(13.729858%, 12.159729%, 12.548828%)" fill-opacity="1" d="M 135.128906 28.621094 L 141.597656 28.621094 L 141.597656 29.703125 L 139.011719 29.703125 L 139.011719 37.839844 L 137.714844 37.839844 L 137.714844 29.703125 L 135.128906 29.703125 L 135.128906 28.621094 "/>
<path fill-rule="nonzero" fill="rgb(13.729858%, 12.159729%, 12.548828%)" fill-opacity="1" d="M 146.1875 26.035156 L 147.296875 26.035156 L 147.296875 27.269531 L 146.1875 27.269531 Z M 144.027344 26.035156 L 145.132812 26.035156 L 145.132812 27.269531 L 144.027344 27.269531 Z M 145.578125 29.75 L 143.746094 34.441406 L 147.347656 34.441406 Z M 144.816406 28.621094 L 146.386719 28.621094 L 150.003906 37.839844 L 148.605469 37.839844 L 147.71875 35.472656 L 143.328125 35.472656 L 142.441406 37.839844 L 141.136719 37.839844 L 144.816406 28.621094 "/>
<g clip-path="url(#clip-1)">
<path fill-rule="nonzero" fill="rgb(13.729858%, 12.159729%, 12.548828%)" fill-opacity="1" d="M 149.4375 28.621094 L 155.90625 28.621094 L 155.90625 29.703125 L 153.316406 29.703125 L 153.316406 37.839844 L 152.019531 37.839844 L 152.019531 29.703125 L 149.4375 29.703125 L 149.4375 28.621094 "/>
</g>
<path fill-rule="nonzero" fill="rgb(13.729858%, 12.159729%, 12.548828%)" fill-opacity="1" d="M 94.6875 52.785156 L 97.144531 52.785156 L 97.144531 43.5625 L 94.6875 43.5625 Z M 94.6875 52.785156 "/>
<path fill-rule="nonzero" fill="rgb(13.729858%, 12.159729%, 12.548828%)" fill-opacity="1" d="M 99.117188 43.5625 L 101.574219 43.5625 L 101.574219 50.957031 L 105.277344 50.957031 L 105.277344 52.785156 L 99.117188 52.785156 L 99.117188 43.5625 "/>
<path fill-rule="nonzero" fill="rgb(13.729858%, 12.159729%, 12.548828%)" fill-opacity="1" d="M 106.53125 43.5625 L 110.28125 43.5625 L 111.96875 49.105469 C 112.03125 49.324219 112.085938 49.574219 112.128906 49.847656 C 112.167969 50.121094 112.199219 50.417969 112.222656 50.730469 C 112.253906 50.390625 112.289062 50.074219 112.339844 49.789062 C 112.386719 49.5 112.441406 49.257812 112.5 49.050781 L 114.1875 43.5625 L 117.878906 43.5625 L 117.878906 52.785156 L 115.570312 52.785156 L 115.570312 46.59375 C 115.570312 46.296875 115.578125 45.992188 115.597656 45.675781 C 115.613281 45.363281 115.640625 45.023438 115.675781 44.664062 C 115.613281 44.941406 115.550781 45.207031 115.484375 45.460938 C 115.421875 45.714844 115.351562 45.953125 115.277344 46.175781 L 113.203125 52.785156 L 110.992188 52.785156 L 108.964844 46.289062 C 108.894531 46.0625 108.828125 45.8125 108.765625 45.539062 C 108.695312 45.261719 108.636719 44.972656 108.582031 44.664062 C 108.609375 45.101562 108.636719 45.496094 108.65625 45.84375 C 108.675781 46.191406 108.683594 46.453125 108.683594 46.632812 L 108.683594 52.785156 L 106.53125 52.785156 L 106.53125 43.5625 "/>
<path fill-rule="nonzero" fill="rgb(13.729858%, 12.159729%, 12.548828%)" fill-opacity="1" d="M 119.839844 43.5625 L 126.25 43.5625 L 126.25 45.292969 L 122.296875 45.292969 L 122.296875 47.144531 L 126.023438 47.144531 L 126.023438 48.898438 L 122.296875 48.898438 L 122.296875 51 L 126.394531 51 L 126.394531 52.785156 L 119.839844 52.785156 L 119.839844 43.5625 "/>
<path fill-rule="nonzero" fill="rgb(13.729858%, 12.159729%, 12.548828%)" fill-opacity="1" d="M 128.109375 43.5625 L 131.179688 43.5625 L 133.84375 49.089844 C 133.9375 49.277344 134.042969 49.535156 134.164062 49.867188 C 134.28125 50.199219 134.417969 50.601562 134.5625 51.082031 C 134.484375 50.628906 134.429688 50.210938 134.390625 49.832031 C 134.355469 49.449219 134.335938 49.101562 134.335938 48.785156 L 134.335938 43.5625 L 136.5625 43.5625 L 136.5625 52.785156 L 133.503906 52.785156 L 130.734375 47.050781 C 130.605469 46.789062 130.484375 46.503906 130.378906 46.195312 C 130.269531 45.882812 130.171875 45.546875 130.078125 45.183594 C 130.164062 45.734375 130.230469 46.238281 130.269531 46.699219 C 130.3125 47.160156 130.335938 47.566406 130.335938 47.917969 L 130.335938 52.785156 L 128.109375 52.785156 L 128.109375 43.5625 "/>
<path fill-rule="nonzero" fill="rgb(13.729858%, 12.159729%, 12.548828%)" fill-opacity="1" d="M 142.496094 45.621094 L 141.300781 49.082031 L 143.648438 49.082031 Z M 141.058594 43.5625 L 144.027344 43.5625 L 147.519531 52.785156 L 144.890625 52.785156 L 144.234375 50.835938 L 140.683594 50.835938 L 139.996094 52.785156 L 137.5625 52.785156 L 141.058594 43.5625 "/>
<g clip-path="url(#clip-2)">
<path fill-rule="nonzero" fill="rgb(13.729858%, 12.159729%, 12.548828%)" fill-opacity="1" d="M 147.976562 43.5625 L 150.429688 43.5625 L 150.429688 48.933594 C 150.429688 49.71875 150.546875 50.289062 150.78125 50.636719 C 151.015625 50.988281 151.390625 51.164062 151.90625 51.164062 C 152.433594 51.164062 152.832031 50.976562 153.101562 50.601562 C 153.367188 50.222656 153.503906 49.667969 153.503906 48.933594 L 153.503906 43.5625 L 155.847656 43.5625 L 155.847656 48.933594 C 155.847656 50.289062 155.519531 51.304688 154.863281 51.984375 C 154.207031 52.660156 153.222656 53 151.90625 53 C 150.605469 53 149.625 52.65625 148.964844 51.976562 C 148.304688 51.296875 147.976562 50.28125 147.976562 48.933594 L 147.976562 43.5625 "/>
</g>
</svg>
